<?xml version="1.0" standalone="no"?>
<!DOCTYPE svg PUBLIC "-//W3C//DTD SVG 20010904//EN"
 "http://www.w3.org/TR/2001/REC-SVG-20010904/DTD/svg10.dtd">
<svg version="1.0" xmlns="http://www.w3.org/2000/svg"
 width="500.000000pt" height="500.000000pt" viewBox="0 0 500.000000 500.000000"
 preserveAspectRatio="xMidYMid meet">
<metadata>
Created by potrace 1.11, written by Peter Selinger 2001-2013
</metadata>
<g transform="translate(0.000000,500.000000) scale(0.100000,-0.100000)"
fill="#000000" stroke="none">
<path d="M1267 2736 c-137 -49 -198 -209 -130 -345 86 -173 328 -173 416 0 84
164 -29 358 -208 358 -22 0 -57 -6 -78 -13z m158 -35 c98 -45 146 -141 123
-244 -20 -92 -111 -167 -203 -167 -56 0 -137 42 -168 88 -76 110 -40 259 76
317 61 30 116 32 172 6z"/>
<path d="M1732 2518 c-56 -128 -102 -236 -102 -240 0 -5 6 -8 13 -8 8 0 26 29
42 65 l27 65 128 0 128 0 27 -65 c16 -36 34 -65 42 -65 7 0 13 4 13 9 0 4 -27
71 -61 147 -33 76 -79 181 -101 232 -22 50 -43 92 -47 92 -4 0 -53 -105 -109
-232z m218 -84 c0 -2 -49 -4 -110 -4 -60 0 -110 2 -110 4 0 6 99 236 107 249
4 7 113 -230 113 -249z"/>
<path d="M430 2505 c0 -202 2 -235 15 -235 12 0 15 18 15 105 l0 105 110 0
c91 0 110 3 110 15 0 12 -19 15 -110 15 l-110 0 0 100 0 99 128 3 c177 4 166
22 -15 26 l-143 3 0 -236z"/>
<path d="M814 2727 c-2 -7 -3 -111 -2 -232 l3 -220 123 0 c156 0 166 19 12 23
l-110 3 0 219 c0 145 -4 220 -10 220 -6 0 -13 -6 -16 -13z"/>
<path d="M2070 2725 c0 -12 14 -15 65 -15 l65 0 0 -220 c0 -189 2 -220 15
-220 13 0 15 31 15 220 l0 220 70 0 c56 0 70 3 70 15 0 13 -23 15 -150 15
-127 0 -150 -2 -150 -15z"/>
<path d="M2545 2728 c-3 -7 -36 -111 -75 -231 -65 -200 -76 -247 -51 -221 9 9
151 436 151 455 0 13 -20 11 -25 -3z"/>
<path d="M2600 2725 c0 -12 14 -15 65 -15 l65 0 2 -217 c2 -162 6 -217 16
-221 9 -3 12 45 12 217 l0 221 70 0 c56 0 70 3 70 15 0 13 -23 15 -150 15
-127 0 -150 -2 -150 -15z"/>
<path d="M2980 2505 c0 -185 3 -236 13 -233 8 3 13 38 15 116 l3 112 149 0
150 0 0 -115 c0 -96 3 -115 15 -115 13 0 15 33 15 235 0 202 -2 235 -15 235
-12 0 -15 -18 -15 -105 l0 -105 -150 0 -149 0 -3 102 c-2 70 -7 103 -15 106
-10 3 -13 -48 -13 -233z"/>
<path d="M3480 2505 l0 -236 143 3 c179 4 188 22 12 26 l-125 3 0 99 0 100
110 0 c91 0 110 3 110 15 0 12 -19 15 -110 15 l-110 0 0 90 0 89 128 3 c177 4
166 22 -15 26 l-143 3 0 -236z"/>
<path d="M3880 2505 c0 -202 2 -235 15 -235 12 0 15 17 15 90 l0 90 74 0 75 0
48 -90 c32 -60 54 -90 66 -90 9 0 17 2 17 5 0 3 -22 44 -50 92 l-49 87 36 21
c98 55 94 196 -8 247 -26 14 -59 18 -136 18 l-103 0 0 -235z m252 167 c27 -27
33 -40 33 -77 0 -37 -6 -50 -33 -77 -31 -32 -35 -33 -127 -36 l-95 -4 0 117 0
117 95 -4 c92 -3 96 -4 127 -36z"/>
<path d="M4310 2505 l0 -236 143 3 c179 4 188 22 12 26 l-125 3 0 99 0 100
110 0 c91 0 110 3 110 15 0 12 -19 15 -110 15 l-110 0 0 90 0 89 128 3 c177 4
166 22 -15 26 l-143 3 0 -236z"/>
</g>
</svg>
